<?xml version="1.0" standalone="no"?>
<!DOCTYPE svg PUBLIC "-//W3C//DTD SVG 20010904//EN"
 "http://www.w3.org/TR/2001/REC-SVG-20010904/DTD/svg10.dtd">
<svg version="1.0" xmlns="http://www.w3.org/2000/svg"
 width="512.000000pt" height="512.000000pt" viewBox="0 0 512.000000 512.000000"
 preserveAspectRatio="xMidYMid meet">

<g transform="translate(0.000000,512.000000) scale(0.100000,-0.100000)"
fill="#ffffff" stroke="none">
<path d="M3670 4050 c-199 -21 -345 -119 -487 -327 -33 -49 -201 -338 -373
-643 -344 -613 -342 -609 -346 -595 -10 33 -174 1065 -174 1094 0 45 28 106
67 152 62 70 83 110 83 156 0 57 -23 95 -74 125 l-41 23 -640 0 c-352 0 -652
-3 -667 -7 -43 -13 -87 -56 -94 -94 -13 -69 2 -100 93 -197 47 -51 94 -110
104 -133 10 -22 106 -523 218 -1140 110 -604 209 -1124 220 -1155 39 -115 85
-175 165 -217 43 -22 64 -26 136 -26 72 -1 94 4 143 26 77 36 166 127 249 253
35 55 305 505 598 1000 293 495 537 904 541 909 5 5 29 -10 57 -36 265 -248
688 -73 742 305 20 146 -13 289 -90 387 -82 104 -251 159 -430 140z"/>
</g>
</svg>
